{
    "asset" : {
        "generator" : "Khronos glTF Blender I/O v3.2.40",
        "version" : "2.0"
    },
    "scene" : 0,
    "scenes" : [
        {
            "name" : "Scene",
            "nodes" : [
                0
            ]
        }
    ],
    "nodes" : [
        {
            "mesh" : 0,
            "name" : "Text",
            "rotation" : [
                0.7071067094802856,
                0,
                0,
                0.7071068286895752
            ]
        }
    ],
    "materials" : [
        {
            "doubleSided" : true,
            "name" : "Material.003",
            "pbrMetallicRoughness" : {}
        }
    ],
    "meshes" : [
        {
            "name" : "Text",
            "primitives" : [
                {
                    "attributes" : {
                        "POSITION" : 0,
                        "NORMAL" : 1,
                        "TANGENT" : 2,
                        "TEXCOORD_0" : 3
                    },
                    "indices" : 4,
                    "material" : 0
                }
            ]
        }
    ],
    "accessors" : [
        {
            "bufferView" : 0,
            "componentType" : 5126,
            "count" : 51518,
            "max" : [
                1.4078624248504639,
                0.06000000238418579,
                0.1667696088552475
            ],
            "min" : [
                0.030973872169852257,
                -0.06000000238418579,
                -0.42508313059806824
            ],
            "type" : "VEC3"
        },
        {
            "bufferView" : 1,
            "componentType" : 5126,
            "count" : 51518,
            "type" : "VEC3"
        },
        {
            "bufferView" : 2,
            "componentType" : 5126,
            "count" : 51518,
            "type" : "VEC4"
        },
        {
            "bufferView" : 3,
            "componentType" : 5126,
            "count" : 51518,
            "type" : "VEC2"
        },
        {
            "bufferView" : 4,
            "componentType" : 5123,
            "count" : 233580,
            "type" : "SCALAR"
        }
    ],
    "bufferViews" : [
        {
            "buffer" : 0,
            "byteLength" : 618216,
            "byteOffset" : 0
        },
        {
            "buffer" : 0,
            "byteLength" : 618216,
            "byteOffset" : 618216
        },
        {
            "buffer" : 0,
            "byteLength" : 824288,
            "byteOffset" : 1236432
        },
        {
            "buffer" : 0,
            "byteLength" : 412144,
            "byteOffset" : 2060720
        },
        {
            "buffer" : 0,
            "byteLength" : 467160,
            "byteOffset" : 2472864
        }
    ],
    "buffers" : [
        {
            "byteLength" : 2940024,
            "uri" : "data:application/octet-stream;base64,"
        }
    ]
}
